HIERARCHY
ROOT Hips
{
    OFFSET 0.000000 0.000000 0.000000
    CHANNELS 6 Xposition Yposition Zposition Zrotation Xrotation Yrotation
    JOINT Spine
    {
        OFFSET -0.000000 14.517291 0.000000
        CHANNELS 3 Zrotation Xrotation Yrotation
        JOINT Spine1
        {
            OFFSET -0.000000 37.558300 0.000000
            CHANNELS 3 Zrotation Xrotation Yrotation
            JOINT Neck
            {
                OFFSET -0.000000 37.404057 3.400369
                CHANNELS 3 Zrotation Xrotation Yrotation
                JOINT Head
                {
                    OFFSET -0.000000 24.785618 -3.540803
                    CHANNELS 3 Zrotation Xrotation Yrotation
                    End Site
                    {
                        OFFSET -0.000000 35.408028 0.000000
                    }
                }
            }
            JOINT LeftShoulder
            {
                OFFSET 6.992933 33.973492 -0.192664
                CHANNELS 3 Zrotation Xrotation Yrotation
                JOINT LeftArm
                {
                    OFFSET 21.527611 0.000000 0.000000
                    CHANNELS 3 Zrotation Xrotation Yrotation
                    JOINT LeftForeArm
                    {
                        OFFSET 56.353916 0.000000 0.000000
                        CHANNELS 3 Zrotation Xrotation Yrotation
                        JOINT LeftHand
                        {
                            OFFSET 47.774071 0.000000 0.000000
                            CHANNELS 3 Zrotation Xrotation Yrotation
                            End Site
                            {
                                OFFSET 26.556021 0.000000 0.000000
                            }
                        }
                    }
                }
            }
            JOINT RightShoulder
            {
                OFFSET -7.065357 33.973492 -0.192664
                CHANNELS 3 Zrotation Xrotation Yrotation
                JOINT RightArm
                {
                    OFFSET -21.527611 0.000000 0.000000
                    CHANNELS 3 Zrotation Xrotation Yrotation
                    JOINT RightForeArm
                    {
                        OFFSET -56.353916 0.000000 0.000000
                        CHANNELS 3 Zrotation Xrotation Yrotation
                        JOINT RightHand
                        {
                            OFFSET -47.774071 0.000000 0.000000
                            CHANNELS 3 Zrotation Xrotation Yrotation
                            End Site
                            {
                                OFFSET -26.556021 0.000000 0.000000
                            }
                        }
                    }
                }
            }
        }
    }
    JOINT LeftUpLeg
    {
        OFFSET 17.704014 0.000000 0.000000
        CHANNELS 3 Zrotation Xrotation Yrotation
        JOINT LeftLeg
        {
            OFFSET -0.000000 -81.181816 0.000000
            CHANNELS 3 Zrotation Xrotation Yrotation
            JOINT LeftFoot
            {
                OFFSET -0.000000 -62.821102 0.000000
                CHANNELS 3 Zrotation Xrotation Yrotation
                JOINT LeftToeBase
                {
                    OFFSET -0.000000 -11.507608 26.556021
                    CHANNELS 3 Zrotation Xrotation Yrotation
                    End Site
                    {
                        OFFSET -0.000000 0.000000 7.081605
                    }
                }
            }
        }
    }
    JOINT RightUpLeg
    {
        OFFSET -17.704014 0.000000 0.000000
        CHANNELS 3 Zrotation Xrotation Yrotation
        JOINT RightLeg
        {
            OFFSET -0.000000 -81.181816 0.000000
            CHANNELS 3 Zrotation Xrotation Yrotation
            JOINT RightFoot
            {
                OFFSET -0.000000 -62.821102 0.000000
                CHANNELS 3 Zrotation Xrotation Yrotation
                JOINT RightToeBase
                {
                    OFFSET -0.000000 -11.507608 26.556021
                    CHANNELS 3 Zrotation Xrotation Yrotation
                    End Site
                    {
                        OFFSET -0.000000 0.000000 7.081605
                    }
                }
            }
        }
    }
}
MOTION
Frames:    9
Frame Time:    0.008333
-4.716559    156.783569    -77.506310    -1.947035    3.382517    35.168373    0.753554    0.942488    -3.815223    -8.546713    -0.120728    -1.277227    15.404972    -7.734621    -1.415550    1.726934    4.988541    -4.664073    8.483384    5.240948    -21.969355    -28.816425    20.233988    -62.261135    -12.206335    -6.997643    -89.708344    17.314375    -19.543352    -4.482119    -14.918229    -7.440629    -2.581110    26.960032    -24.806807    67.323273    -11.167256    -13.630791    50.663528    -8.716653    -10.560933    27.878542    27.525330    -8.776419    -3.440150    -8.118568    24.433527    -15.645138    -15.244718    -11.957569    40.652878    0.000000    0.000000    0.000000    -13.265545    -29.001369    -4.494345    16.991152    36.300034    -15.012382    -1.679714    -6.465486    -14.343701    0.000000    0.000000    0.000000    
-5.232468    156.922668    -77.208138    -1.935263    3.372820    35.103138    0.616617    0.929494    -3.767384    -8.429763    -0.061035    -1.257108    15.376845    -7.728291    -1.413812    1.798776    4.977569    -4.647862    8.549362    5.233860    -21.991360    -28.758160    20.228672    -62.385612    -12.157245    -7.153322    -89.735184    17.460163    -19.650795    -4.453068    -14.855868    -7.365146    -2.599418    26.989340    -24.822168    67.402626    -11.148301    -13.709393    50.772087    -8.732050    -10.634520    27.804752    27.067558    -8.726782    -3.173543    -8.529128    25.417664    -15.822474    -14.563371    -12.963445    39.942318    0.000000    0.000000    0.000000    -12.914538    -28.949774    -4.308115    16.824966    36.140083    -14.879442    -1.702611    -6.424275    -14.398121    0.000000    0.000000    0.000000    
-5.685783    157.076920    -76.937851    -1.927584    3.320662    35.090034    0.592429    0.956816    -3.762713    -8.372855    -0.029870    -1.253294    15.406635    -7.757705    -1.355258    1.742108    5.024801    -4.603814    8.553694    5.222091    -21.996653    -28.681812    20.243879    -62.457371    -12.029858    -7.310666    -89.786308    17.357574    -19.686554    -4.468174    -14.879764    -7.323915    -2.591799    26.972504    -24.714931    67.354744    -11.288207    -13.876525    50.875397    -8.662917    -10.708961    27.812334    26.550602    -8.699199    -2.706534    -8.548313    26.494911    -16.435171    -14.232145    -13.879070    39.104977    0.000000    0.000000    0.000000    -12.614872    -28.812035    -4.195257    16.650778    35.891735    -14.842847    -1.650611    -6.288685    -14.251231    0.000000    0.000000    0.000000    
-6.130311    157.213943    -76.687866    -1.932388    3.294522    35.064785    0.565518    0.953727    -3.765167    -8.333438    -0.020511    -1.253505    15.411167    -7.697212    -1.324922    1.738165    5.011307    -4.565191    8.542861    5.170315    -22.024511    -28.673506    20.241241    -62.410217    -12.024040    -7.318411    -89.860046    17.409805    -19.696369    -4.409215    -14.840096    -7.240086    -2.570490    27.057281    -24.737429    67.466766    -11.308563    -13.835940    50.898022    -8.733262    -10.668124    27.754118    26.034483    -8.701926    -2.373857    -8.552972    27.541864    -16.929407    -14.025332    -14.588379    38.165760    0.000000    0.000000    0.000000    -12.331657    -28.722157    -4.125150    16.501446    35.706871    -14.841433    -1.647117    -6.216796    -14.101626    0.000000    0.000000    0.000000    
-6.586443    157.330032    -76.432373    -1.964907    3.268475    35.035027    0.504735    0.933969    -3.745025    -8.234069    -0.022119    -1.247024    15.343319    -7.619149    -1.340798    1.837793    4.977982    -4.545745    8.570300    5.211636    -21.995749    -28.550388    20.256275    -62.515282    -11.957407    -7.466514    -89.910797    17.436291    -19.787575    -4.433183    -14.799818    -7.253953    -2.507290    27.035149    -24.669888    67.376762    -11.316669    -13.848236    51.028641    -8.660073    -10.649722    27.835260    25.553156    -8.734945    -1.979687    -8.468719    28.616184    -17.416887    -13.911197    -15.160528    37.093376    0.000000    0.000000    0.000000    -12.005101    -28.660856    -4.061985    16.318617    35.554016    -14.715737    -1.633117    -6.185683    -14.050599    0.000000    0.000000    0.000000    
-6.978747    157.453506    -76.211166    -2.002230    3.212180    35.015553    0.551735    0.897948    -3.717281    -8.218188    0.043192    -1.233070    15.314358    -7.628334    -1.331689    1.852621    5.014112    -4.530275    8.568713    5.158505    -22.027048    -28.594757    20.187601    -62.460129    -11.991720    -7.363783    -89.942505    17.376993    -19.736191    -4.495854    -14.788221    -7.190322    -2.523484    27.085213    -24.691038    67.418350    -11.307587    -13.826109    51.117584    -8.685304    -10.619744    27.741798    25.038708    -8.756701    -1.620706    -8.306225    29.698515    -17.862175    -13.770332    -15.632829    36.036758    0.000000    0.000000    0.000000    -11.711641    -28.553509    -3.967788    16.214838    35.349819    -14.655835    -1.605782    -6.115433    -14.008595    0.000000    0.000000    0.000000    
-7.395303    157.548172    -75.985176    -2.049752    3.179449    35.005146    0.529055    0.882664    -3.713745    -8.133827    0.011226    -1.234295    15.341592    -7.584735    -1.308219    1.805411    5.060458    -4.511332    8.568946    5.149689    -21.978987    -28.594328    20.171280    -62.452663    -11.988269    -7.309617    -89.975372    17.218523    -19.686630    -4.527505    -14.784597    -7.134811    -2.477031    27.126505    -24.667515    67.399643    -11.292843    -13.824930    51.216694    -8.595272    -10.598898    27.834166    24.576515    -8.768497    -1.522583    -8.322727    30.666548    -18.073431    -13.667165    -16.201942    35.145603    0.000000    0.000000    0.000000    -11.412004    -28.482853    -3.833661    16.131533    35.181835    -14.607241    -1.579431    -6.153759    -14.004540    0.000000    0.000000    0.000000    
-7.751555    157.643738    -75.778702    -2.106506    3.100063    34.997684    0.615863    0.871639    -3.699343    -8.127888    0.013114    -1.229169    15.365305    -7.582709    -1.286186    1.732857    5.147924    -4.501816    8.573514    5.149148    -21.913250    -28.525930    20.210512    -62.505249    -11.959755    -7.353936    -90.007027    17.171103    -19.711208    -4.565455    -14.715639    -7.065706    -2.463648    27.081749    -24.688093    67.415512    -11.277489    -13.760168    51.267525    -8.628841    -10.544778    27.858952    24.130297    -8.764975    -1.455160    -8.338469    31.738577    -18.366251    -13.546793    -17.014618    34.490189    0.000000    0.000000    0.000000    -11.093629    -28.385820    -3.801790    15.934150    35.025467    -14.427481    -1.486963    -6.098247    -13.964221    0.000000    0.000000    0.000000    
-8.131640    157.714020    -75.576653    -2.188872    3.065203    35.010044    0.655471    0.806774    -3.681703    -8.073919    0.005443    -1.223892    15.310228    -7.492074    -1.323319    1.764331    5.135409    -4.512877    8.576713    5.168684    -21.899490    -28.544073    20.142206    -62.459702    -12.006218    -7.218774    -90.053482    17.176361    -19.637640    -4.568833    -14.747317    -7.043042    -2.418834    27.095110    -24.666248    67.328133    -11.243991    -13.713066    51.355854    -8.779582    -10.540576    27.871767    23.748505    -8.820720    -1.476094    -8.486198    32.752083    -18.654144    -13.473029    -17.848318    34.061417    0.000000    0.000000    0.000000    -10.790176    -28.354406    -3.718353    15.816282    34.901318    -14.287082    -1.285285    -6.118195    -14.060869    0.000000    0.000000    0.000000    
